<svg width="15" height="29" viewBox="0 0 15 29" fill="none" xmlns="http://www.w3.org/2000/svg">
  <path
    d="M6.36377 27.6509C6.36377 28.2032 6.81148 28.6509 7.36377 28.6509C7.91605 28.6509 8.36377 28.2032 8.36377 27.6509L7.36377 27.6509L6.36377 27.6509ZM8.07087 0.293024C7.68035 -0.0974999 7.04719 -0.0974998 6.65666 0.293024L0.292701 6.65699C-0.0978238 7.04751 -0.0978238 7.68068 0.292701 8.0712C0.683225 8.46172 1.31639 8.46172 1.70691 8.0712L7.36377 2.41434L13.0206 8.0712C13.4111 8.46172 14.0443 8.46172 14.4348 8.0712C14.8254 7.68068 14.8254 7.04751 14.4348 6.65699L8.07087 0.293024ZM7.36377 27.6509L8.36377 27.6509L8.36377 1.00013L7.36377 1.00013L6.36377 1.00013L6.36377 27.6509L7.36377 27.6509Z"
    fill="black" />
</svg>