<svg width="56" height="56" viewBox="0 0 56 56" fill="none" xmlns="http://www.w3.org/2000/svg">
  <path
    d="M28 0C43.4644 0 56 12.5356 56 28C56 43.4644 43.4644 56 28 56C12.5356 56 0 43.4644 0 28C0 12.5356 12.5356 0 28 0ZM40.4376 16.8C39.3708 16.8196 37.7328 17.3796 29.8564 20.6136C24.3277 22.9216 18.8144 25.2662 13.3168 27.6472C11.9728 28.1755 11.27 28.6916 11.2084 29.1956C11.0852 30.1644 12.4964 30.464 14.2716 31.0352C15.7192 31.5 17.668 32.0432 18.6816 32.0656C19.6 32.0843 20.6248 31.7109 21.756 30.9456C29.4821 25.7936 33.4703 23.1905 33.7204 23.1364C33.8968 23.0972 34.1404 23.0468 34.3084 23.1924C34.4736 23.338 34.4568 23.6124 34.4372 23.688C34.2972 24.2788 27.0424 30.7944 26.6252 31.2228L26.4236 31.4244C24.8836 32.9448 23.3296 33.9388 26.012 35.6832C28.4368 37.2596 29.848 38.2648 32.34 39.8832C33.936 40.9136 35.1876 42.1372 36.834 41.9888C37.5928 41.9188 38.374 41.216 38.7744 39.116C39.7124 34.16 41.5604 23.4136 41.986 18.984C42.0128 18.6166 41.9968 18.2473 41.9384 17.8836C41.9038 17.5899 41.7599 17.3199 41.5352 17.1276C41.1964 16.8532 40.67 16.7972 40.4376 16.8Z"
    fill="#29ACEE" />
</svg>