<svg width="56" height="56" viewBox="0 0 56 56" fill="none" xmlns="http://www.w3.org/2000/svg">
  <path
    d="M28 0C12.536 0 0 12.536 0 28C0 43.464 12.536 56 28 56C43.464 56 56 43.464 56 28C56 12.536 43.464 0 28 0ZM17.9375 11.1221C18.5144 11.088 19.0358 11.4329 19.4312 12.0449L23.2593 19.3046C23.6623 20.1649 23.4333 21.086 22.832 21.7007L21.0786 23.4541C20.9704 23.6024 20.8992 23.7694 20.8975 23.9531C21.5699 26.5559 23.6096 28.9568 25.4093 30.6079C27.2088 32.2589 29.143 34.4943 31.6538 35.0239C31.9641 35.1105 32.3443 35.1415 32.5664 34.9351L34.6035 32.8604C35.3067 32.3274 36.3239 32.0691 37.0747 32.5049H37.1089L44.0165 36.5826C45.0305 37.2181 45.1355 38.4466 44.4096 39.1939L39.6519 43.9141C38.9493 44.6346 38.0158 44.8769 37.109 44.8779C33.0981 44.7578 29.3083 42.7892 26.1954 40.7661C21.0859 37.049 16.399 32.4387 13.4566 26.8687C12.3281 24.533 11.0024 21.5529 11.1289 18.9459C11.1402 17.9651 11.4056 17.0043 12.0962 16.3722L16.854 11.6144C17.2247 11.299 17.5913 11.1425 17.9375 11.1221Z"
    fill="#50FF47" />
</svg>